PathFileType	4	(X/Y/Z)	C:/Users/opensim2020/Desktop/walking_exp_matlab/subject03_walking14_straight_01.trc	
DataRate	CameraRate	NumFrames	NumMarkers	Units	OrigDataRate	OrigDataStartFrame	OrigNumFrames	
100.00	100.00	9	47	mm	100.00	476	205	
Frame#	Time	LFHD			RFHD			LBHD			RBHD			C7			T10			CLAV			STRN			RBAK			LSHO			LUPA			LELB			LFRM			LWRA			LWRB			LFIN			RSHO			RUPA			RELB			RFRM			RWRA			RWRB			RFIN			LASI			RASI			LPSI			RPSI			LTHI			LKNE			LTIB			LANK			LHEE			LTOE			RTHI			RKNE			RTIB			RANK			RHEE			RTOE			*39			*40			*41			*42			*43			*44			*45			*46			
		X1	Y1	Z1	X2	Y2	Z2	X3	Y3	Z3	X4	Y4	Z4	X5	Y5	Z5	X6	Y6	Z6	X7	Y7	Z7	X8	Y8	Z8	X9	Y9	Z9	X10	Y10	Z10	X11	Y11	Z11	X12	Y12	Z12	X13	Y13	Z13	X14	Y14	Z14	X15	Y15	Z15	X16	Y16	Z16	X17	Y17	Z17	X18	Y18	Z18	X19	Y19	Z19	X20	Y20	Z20	X21	Y21	Z21	X22	Y22	Z22	X23	Y23	Z23	X24	Y24	Z24	X25	Y25	Z25	X26	Y26	Z26	X27	Y27	Z27	X28	Y28	Z28	X29	Y29	Z29	X30	Y30	Z30	X31	Y31	Z31	X32	Y32	Z32	X33	Y33	Z33	X34	Y34	Z34	X35	Y35	Z35	X36	Y36	Z36	X37	Y37	Z37	X38	Y38	Z38	X39	Y39	Z39	X40	Y40	Z40	X41	Y41	Z41	X42	Y42	Z42	X43	Y43	Z43	X44	Y44	Z44	X45	Y45	Z45	X46	Y46	Z46	X47	Y47	Z47	

1	0.000	1362.11438	-1196.66589	1602.39417	1492.88269	-1213.90015	1610.83118	1350.99463	-1323.34949	1557.60498	1480.76465	-1336.56165	1565.49438	1407.01196	-1362.12964	1402.62805	1396.61121	-1418.20410	1098.20630	1419.39429	-1243.46252	1321.39282	1411.79529	-1209.26172	1152.74243	1490.16760	-1431.80408	1229.32300	1261.21887	-1272.53284	1364.75781	1186.30408	-1258.13623	1172.46411	1178.30652	-1230.05371	1051.46594	1194.36023	-1179.09119	931.83167	1237.84875	-1148.42212	820.31677	1181.59351	-1152.44128	820.89807	1202.67200	-1122.02356	744.80060	1573.55713	-1307.84253	1343.52942	1648.70569	-1341.47363	1126.13635	1666.64697	-1342.05432	1013.51752	1673.73059	-1345.60315	876.04883	1644.61658	-1327.70862	775.13702	1685.24207	-1364.29529	776.45020	1673.55798	-1360.34229	700.88318	1294.48499	-1287.96606	904.62415	1527.76184	-1285.84668	930.60596	1340.99146	-1442.15063	959.51447	1487.06750	-1441.13721	977.79773	1268.06079	-1405.88208	616.40015	1310.65442	-1443.36829	446.51263	1302.36731	-1540.64441	272.53775	1337.71802	-1616.25391	74.02161	1371.82361	-1666.71814	43.33502	1358.21204	-1474.30188	34.66517	1607.01611	-1278.51050	659.30670	1580.13196	-1202.64612	495.94794	1594.65796	-1224.95483	306.30865	1562.09631	-1228.48987	86.66881	1511.99414	-1269.08069	47.90371	1541.27637	-1088.18054	59.11185																								 
2	0.010	1364.00171	-1189.97839	1601.83887	1494.87927	-1207.01086	1609.80627	1353.20081	-1316.74524	1556.26892	1483.04565	-1329.47559	1563.84961	1409.14551	-1354.30151	1401.13477	1397.77759	-1410.01636	1096.86841	1421.12842	-1235.44421	1320.13513	1412.86646	-1200.83374	1151.61755	1491.53699	-1423.41541	1227.19348	1263.33777	-1265.03027	1364.06067	1187.61584	-1248.77771	1172.63232	1179.37585	-1219.43262	1052.01392	1197.34521	-1164.39880	934.77527	1243.47815	-1129.04602	825.93561	1187.35059	-1132.80798	825.06116	1210.15906	-1098.92639	751.05756	1575.37891	-1299.92188	1341.91003	1650.26245	-1333.38647	1124.41968	1667.96143	-1333.99927	1011.75305	1675.11243	-1338.40405	874.33661	1645.90942	-1321.39624	773.10486	1686.80725	-1357.80371	774.87195	1674.82605	-1355.14490	699.06378	1294.75891	-1280.64136	902.41272	1528.30603	-1276.19043	929.62207	1342.90479	-1434.03796	957.63470	1488.75562	-1432.02686	976.22504	1270.13196	-1397.60449	614.48645	1311.30237	-1436.14917	444.40549	1302.86682	-1536.76538	272.40390	1337.81226	-1616.52734	75.58038	1371.61548	-1667.04504	45.51746	1358.70935	-1474.71558	35.02310	1608.45264	-1268.88855	657.75189	1579.09912	-1191.83545	495.63919	1594.70728	-1210.07336	305.47467	1563.56262	-1209.44568	85.70702	1513.85168	-1249.92749	45.84389	1541.71851	-1068.96765	60.82412																								 
3	0.020	1365.90137	-1183.31042	1600.99976	1496.94092	-1199.98596	1608.72876	1355.52405	-1309.86072	1554.76990	1485.43372	-1322.20300	1562.13074	1411.34143	-1346.26648	1399.59790	1399.09607	-1401.67029	1095.51331	1422.92468	-1227.18555	1318.85608	1414.16895	-1192.42981	1150.29932	1493.10962	-1414.83533	1225.21130	1265.45313	-1257.71875	1363.40088	1188.70337	-1239.95715	1172.75818	1180.29932	-1208.91492	1052.68579	1200.35645	-1149.72449	938.21753	1249.63269	-1109.09900	832.79175	1192.81384	-1113.53528	829.84058	1217.43799	-1076.14673	758.25287	1577.19653	-1291.82227	1340.26941	1651.87927	-1324.91699	1122.68494	1669.29761	-1325.45972	1010.01575	1676.52795	-1330.65369	872.62292	1647.24609	-1314.22278	771.14838	1688.32910	-1350.56445	773.29132	1676.10254	-1349.00342	697.18134	1295.53442	-1272.23389	900.94415	1528.89954	-1266.23291	928.66064	1344.78162	-1425.56506	955.45770	1490.50793	-1422.71704	974.69147	1271.87122	-1388.96082	612.73462	1312.39087	-1428.68384	442.22794	1303.33813	-1532.53015	272.19211	1337.74780	-1615.28540	76.70709	1371.60437	-1666.62415	47.62780	1358.61890	-1474.63257	34.62015	1609.53564	-1259.40918	656.06445	1577.69214	-1180.44080	495.22723	1594.93030	-1196.33594	304.83923	1564.59241	-1192.99487	84.97578	1515.17896	-1233.28467	44.27743	1542.93970	-1052.37012	61.72058																								 
4	0.030	1367.84583	-1176.54016	1600.16821	1498.94348	-1192.73047	1607.71082	1357.88831	-1302.86401	1553.28589	1487.81604	-1314.73767	1560.37061	1413.65808	-1338.10242	1398.25000	1400.47083	-1393.12488	1094.13867	1424.88354	-1218.84265	1317.65491	1415.43054	-1184.08374	1149.10620	1494.93445	-1406.22156	1223.48645	1267.73718	-1249.88989	1362.66296	1190.09570	-1230.51965	1173.03149	1181.15955	-1198.74170	1053.41272	1203.10815	-1135.49646	941.93805	1254.55554	-1090.94116	839.46423	1198.13489	-1094.90967	835.03467	1224.40747	-1053.93079	766.09003	1579.20300	-1282.93787	1338.60999	1653.57153	-1316.20117	1121.04053	1670.75635	-1316.65796	1008.30573	1677.98071	-1322.30090	870.92749	1648.68848	-1306.56030	769.34363	1689.82483	-1342.78625	771.67523	1677.55322	-1342.03247	695.46375	1296.34216	-1263.65576	899.34796	1529.60437	-1256.16553	927.77448	1346.61914	-1416.92017	953.23309	1492.19629	-1413.27710	973.06439	1273.75024	-1379.80164	611.02582	1312.68579	-1421.67737	440.61081	1303.88562	-1527.89124	272.29785	1337.94055	-1614.76648	78.66853	1371.63501	-1666.34924	50.23790	1358.52991	-1474.50513	34.47885	1610.05212	-1249.61963	654.43848	1576.26672	-1169.29065	494.91940	1595.15723	-1183.64722	304.33963	1564.87891	-1178.48120	83.88038	1515.89148	-1219.22766	42.89014	1544.21094	-1038.30017	61.78136																								 
5	0.040	1369.75757	-1169.51941	1599.66101	1500.98657	-1185.37524	1606.87366	1360.29895	-1295.56531	1551.78052	1490.30457	-1307.11304	1558.72461	1416.02942	-1329.91675	1396.92712	1401.97192	-1384.42847	1092.90796	1426.70227	-1210.34229	1316.57349	1416.83936	-1175.55347	1148.04639	1496.93652	-1397.48145	1222.05725	1269.98743	-1241.83923	1361.93286	1191.18860	-1221.63733	1173.20105	1181.86890	-1188.72961	1054.23560	1205.59351	-1121.73315	945.89142	1259.30566	-1073.13721	846.61975	1203.17053	-1076.98376	840.61304	1230.95361	-1032.78564	774.43536	1581.19836	-1274.31860	1337.23840	1655.43457	-1307.12463	1119.47009	1672.43835	-1307.44495	1006.65503	1679.42114	-1313.45276	869.30042	1650.04822	-1298.24487	767.67004	1691.40527	-1334.21313	770.14233	1678.93201	-1334.15369	693.69434	1297.30017	-1254.60645	898.15131	1530.59302	-1245.74658	926.96179	1348.41431	-1407.86731	950.99976	1493.96960	-1403.63721	971.45691	1275.40112	-1370.31494	609.63300	1313.01746	-1414.24963	439.50558	1304.30249	-1523.24878	272.84579	1337.90527	-1613.92566	80.76996	1371.95386	-1665.76477	53.53469	1358.65784	-1474.60632	34.57589	1610.12537	-1239.24341	653.16058	1574.94385	-1158.36975	494.53793	1594.54614	-1170.85767	303.03342	1565.14722	-1166.61877	82.74576	1516.21753	-1207.38123	41.38136	1544.84106	-1026.50159	61.06362																								 
6	0.050	1371.76965	-1162.61011	1599.22400	1503.09570	-1177.88391	1606.24365	1362.73376	-1288.14331	1550.43713	1492.78052	-1299.26025	1557.22083	1418.39661	-1321.76233	1395.83435	1403.69299	-1375.42798	1091.65356	1428.48853	-1201.80493	1315.61487	1418.52844	-1166.70959	1147.08325	1499.12805	-1388.61023	1220.80750	1272.22852	-1233.61194	1361.32898	1192.16626	-1212.99744	1173.65015	1182.55701	-1178.88367	1055.02258	1207.91797	-1108.50842	949.89856	1263.48792	-1056.07251	854.00555	1208.21704	-1059.81519	846.38470	1236.84619	-1012.40472	783.28357	1583.23181	-1265.33875	1335.88989	1657.35632	-1297.61462	1117.98206	1674.06580	-1297.83887	1005.01227	1680.94275	-1304.06787	867.67645	1651.37634	-1289.28040	765.96729	1693.01721	-1324.90430	768.54712	1680.65857	-1325.74121	692.50073	1298.23718	-1245.28198	897.05847	1531.88281	-1235.24194	926.21643	1350.20313	-1398.43542	948.91663	1495.74158	-1393.62585	969.78998	1276.60999	-1360.63196	608.61090	1313.50098	-1405.38611	438.12994	1304.62903	-1518.10242	273.70493	1338.18225	-1612.32007	83.75005	1372.20227	-1665.00574	57.43815	1358.73547	-1474.58972	34.56841	1609.73706	-1228.09363	652.07129	1573.75281	-1147.78186	493.71808	1594.26868	-1159.66394	301.51846	1565.30078	-1156.37488	81.15880	1517.00818	-1197.80969	40.07033	1544.11938	-1016.54688	59.65323																								 
7	0.060	1373.73853	-1155.19958	1598.92114	1505.02222	-1169.99390	1605.66541	1365.16626	-1280.79688	1549.38330	1495.25671	-1291.24890	1555.94641	1420.81653	-1313.45642	1394.91846	1405.65454	-1366.21033	1090.49951	1430.52148	-1193.24500	1315.01636	1420.16382	-1157.72595	1146.63477	1501.55212	-1379.64111	1219.78345	1274.49707	-1225.62659	1360.98450	1193.37415	-1204.14685	1173.89990	1183.22620	-1169.77454	1056.15100	1210.03723	-1095.78247	954.02258	1267.20471	-1039.68872	861.49829	1212.20032	-1043.72083	852.29285	1242.08057	-993.00598	792.43555	1585.39832	-1255.94385	1334.69312	1659.31555	-1287.69763	1116.66968	1675.70972	-1287.83289	1003.52301	1682.46326	-1294.13867	866.22845	1652.71033	-1279.71924	764.47595	1694.60498	-1315.08105	767.19861	1681.98901	-1316.09985	690.89270	1299.77722	-1234.95813	896.26294	1533.41748	-1224.28284	925.58130	1352.03455	-1388.53955	947.00616	1497.59131	-1383.29785	968.14813	1277.60083	-1350.68958	607.87775	1313.62317	-1396.32642	437.25058	1304.97339	-1512.33118	274.90051	1338.47925	-1611.44189	86.95197	1372.52881	-1663.89587	62.07192	1358.78052	-1474.41162	34.54919	1609.02026	-1216.23010	651.14764	1572.89307	-1137.74109	492.29489	1593.97546	-1149.88733	299.44357	1565.42627	-1147.45044	79.04014	1518.47083	-1191.11157	39.50935	1541.67261	-1008.50665	56.13651																								 
8	0.070	1375.81934	-1147.95337	1598.66626	1507.18420	-1162.12720	1605.37842	1367.62415	-1273.07202	1548.53223	1497.77856	-1283.07849	1554.89050	1423.24744	-1305.17212	1394.25269	1408.01013	-1356.75354	1089.45154	1432.37048	-1184.57141	1314.70667	1421.90942	-1148.52332	1146.45337	1504.02881	-1370.47290	1218.80884	1276.66187	-1217.39771	1360.61694	1194.66748	-1195.69238	1174.34741	1184.14880	-1160.14880	1057.04602	1211.79785	-1083.78479	958.03851	1269.94348	-1024.10535	868.88049	1215.64124	-1028.59082	857.94342	1246.47009	-974.65088	801.58813	1587.47546	-1246.92603	1333.83984	1661.17639	-1277.30164	1115.53284	1677.54138	-1277.60229	1002.63556	1683.94666	-1283.72314	865.00824	1654.07483	-1269.56396	763.23724	1696.15710	-1304.65259	765.96826	1683.39771	-1305.91394	689.53522	1301.40723	-1224.36597	896.47467	1535.13855	-1213.11023	925.05066	1353.89905	-1378.46606	945.48108	1499.55737	-1372.69495	966.66132	1278.42554	-1340.36621	607.33350	1313.41870	-1386.78210	436.66153	1305.33167	-1505.91248	276.29489	1338.67175	-1608.71008	91.16985	1372.77466	-1662.48242	67.42815	1358.85864	-1474.22839	34.58327	1608.39771	-1204.11353	650.10016	1573.10071	-1128.33118	490.19757	1593.35510	-1141.20813	297.12613	1565.28357	-1142.70313	77.21352	1518.70117	-1189.70642	40.88734	1538.14282	-1005.33051	45.87885																								 
9	0.080	1377.74011	-1140.20398	1598.93701	1509.27539	-1154.00891	1605.35254	1370.08252	-1265.17737	1548.01404	1500.27368	-1274.74500	1554.22461	1425.75220	-1296.88879	1393.77905	1410.57092	-1347.00549	1088.57654	1434.18396	-1175.80518	1314.58777	1423.74695	-1138.96472	1146.67993	1506.57312	-1361.13879	1217.86865	1278.86182	-1209.34912	1360.73853	1196.27246	-1187.18982	1175.09473	1185.16516	-1151.30566	1058.08728	1213.37903	-1072.30066	961.84717	1271.74817	-1009.06274	876.09412	1218.51135	-1014.52686	863.26837	1249.97815	-957.54645	810.57770	1589.73083	-1237.55994	1333.34692	1663.02026	-1266.40515	1114.57251	1679.03662	-1266.54480	1001.61798	1685.47974	-1272.80115	864.10571	1655.33496	-1258.80017	762.21783	1697.66101	-1293.81482	764.99146	1685.00830	-1294.92822	688.65857	1303.45081	-1213.26978	896.75500	1537.08020	-1202.03674	924.57922	1355.90955	-1368.06287	944.32739	1501.68066	-1361.73804	965.55670	1278.93457	-1329.48926	606.98822	1313.43799	-1375.13611	435.62833	1305.56433	-1498.64368	278.09140	1339.02710	-1606.20068	96.00783	1373.27466	-1660.53015	74.05788	1359.15503	-1474.02405	34.75771	1608.68335	-1192.23950	648.87860	1573.61499	-1118.77014	488.01349	1593.16711	-1133.48816	295.43289	1564.79028	-1141.88330	76.42934	1520.35852	-1190.75549	40.44527	1531.88318	-1005.08246	42.80873																								 
